<svg xmlns="http://www.w3.org/2000/svg" viewBox="-1 -4 84 84" width="32" height="32">
  <style>
    .bar { fill: #07070c; }
    .mark { fill: #bccf07; }
    @media (prefers-color-scheme: dark) {
      .bar { fill: #d4e44a; }
    }
  </style>
  <path class="bar" d="M -0.5,-0.5 C 4.5,-0.5 9.5,-0.5 14.5,-0.5C 14.5,3.16667 14.5,6.83333 14.5,10.5C 14.5,32.1667 14.5,53.8333 14.5,75.5C 9.5,75.5 4.5,75.5 -0.5,75.5C -0.5,50.1667 -0.5,24.8333 -0.5,-0.5 Z"/>
  <path class="mark" d="M 14.5,-0.5 C 19.1667,-0.5 23.8333,-0.5 28.5,-0.5C 32.3426,21.2137 36.5093,42.8804 41,64.5C 45.4423,42.7873 49.9423,21.1206 54.5,-0.5C 58.8333,-0.5 63.1667,-0.5 67.5,-0.5C 67.5,2.83333 67.5,6.16667 67.5,9.5C 62.6773,31.2817 58.344,53.2817 54.5,75.5C 45.8333,75.5 37.1667,75.5 28.5,75.5C 24.3231,53.6065 19.6564,31.9398 14.5,10.5C 14.5,6.83333 14.5,3.16667 14.5,-0.5 Z"/>
  <path class="bar" d="M 67.5,-0.5 C 72.5,-0.5 77.5,-0.5 82.5,-0.5C 82.5,24.8333 82.5,50.1667 82.5,75.5C 77.5,75.5 72.5,75.5 67.5,75.5C 67.5,53.5 67.5,31.5 67.5,9.5C 67.5,6.16667 67.5,2.83333 67.5,-0.5 Z"/>
</svg>
